<mxfile host="app.diagrams.net" modified="2022-11-16T14:22:41.422Z" agent="5.0 (Macintosh; Intel Mac OS X 10_15_7) AppleWebKit/537.36 (KHTML, like Gecko) Chrome/106.0.0.0 Safari/537.36" etag="sfYVMls-xCD6bD8LQVRj" version="20.5.3" type="github">
  <diagram id="FtoD-XMlUUmFFMKcjNig" name="Page-1">
    <mxGraphModel dx="2556" dy="2064" grid="0" gridSize="10" guides="1" tooltips="1" connect="1" arrows="1" fold="1" page="0" pageScale="1" pageWidth="850" pageHeight="1100" math="0" shadow="0">
      <root>
        <mxCell id="0" />
        <mxCell id="1" parent="0" />
        <mxCell id="9xGQbu5b4NpAhHMv7e0Q-13" value="" style="rounded=0;whiteSpace=wrap;html=1;dashed=1;fontSize=15;fontColor=#A3A3A3;" vertex="1" parent="1">
          <mxGeometry x="692" y="390" width="795" height="311" as="geometry" />
        </mxCell>
        <mxCell id="9xGQbu5b4NpAhHMv7e0Q-11" value="" style="rounded=0;whiteSpace=wrap;html=1;dashed=1;fontSize=15;fontColor=#A3A3A3;" vertex="1" parent="1">
          <mxGeometry x="34" y="554" width="605" height="145" as="geometry" />
        </mxCell>
        <mxCell id="9xGQbu5b4NpAhHMv7e0Q-8" value="" style="rounded=0;whiteSpace=wrap;html=1;dashed=1;fontSize=15;fontColor=#A3A3A3;" vertex="1" parent="1">
          <mxGeometry x="34" y="399" width="605" height="141" as="geometry" />
        </mxCell>
        <mxCell id="9xGQbu5b4NpAhHMv7e0Q-6" value="" style="rounded=0;whiteSpace=wrap;html=1;dashed=1;fontSize=15;fontColor=#A3A3A3;" vertex="1" parent="1">
          <mxGeometry x="41" y="-74" width="595" height="399" as="geometry" />
        </mxCell>
        <mxCell id="lZUS2v1G8GHMa_mkW9TZ-2" value="供应商特征" style="rounded=1;whiteSpace=wrap;html=1;fontSize=16;fillColor=#dae8fc;strokeColor=#6c8ebf;gradientColor=#7ea6e0;strokeWidth=2;" parent="1" vertex="1">
          <mxGeometry x="150" y="644" width="100" height="30" as="geometry" />
        </mxCell>
        <mxCell id="lZUS2v1G8GHMa_mkW9TZ-4" value="产品特征" style="rounded=1;whiteSpace=wrap;html=1;fontSize=16;fillColor=#d5e8d4;strokeColor=#82b366;gradientColor=#97d077;strokeWidth=2;" parent="1" vertex="1">
          <mxGeometry x="291" y="644" width="100" height="30" as="geometry" />
        </mxCell>
        <mxCell id="lZUS2v1G8GHMa_mkW9TZ-6" value="客户特征" style="rounded=1;whiteSpace=wrap;html=1;fontSize=16;fillColor=#fff2cc;strokeColor=#d6b656;gradientColor=#ffd966;strokeWidth=2;" parent="1" vertex="1">
          <mxGeometry x="434" y="644" width="100" height="30" as="geometry" />
        </mxCell>
        <mxCell id="lZUS2v1G8GHMa_mkW9TZ-9" style="edgeStyle=orthogonalEdgeStyle;rounded=0;orthogonalLoop=1;jettySize=auto;html=1;exitX=0.5;exitY=0;exitDx=0;exitDy=0;entryX=0.5;entryY=1;entryDx=0;entryDy=0;strokeWidth=2;" parent="1" source="lZUS2v1G8GHMa_mkW9TZ-10" target="lZUS2v1G8GHMa_mkW9TZ-82" edge="1">
          <mxGeometry relative="1" as="geometry" />
        </mxCell>
        <mxCell id="lZUS2v1G8GHMa_mkW9TZ-10" value="供应商基础属性" style="rounded=1;whiteSpace=wrap;html=1;fontSize=16;fillColor=#dae8fc;strokeColor=#6c8ebf;gradientColor=#7ea6e0;strokeWidth=2;" parent="1" vertex="1">
          <mxGeometry x="710" y="646" width="125" height="30" as="geometry" />
        </mxCell>
        <mxCell id="lZUS2v1G8GHMa_mkW9TZ-11" style="edgeStyle=orthogonalEdgeStyle;rounded=0;orthogonalLoop=1;jettySize=auto;html=1;exitX=0.5;exitY=0;exitDx=0;exitDy=0;entryX=0.5;entryY=1;entryDx=0;entryDy=0;strokeWidth=2;" parent="1" source="lZUS2v1G8GHMa_mkW9TZ-12" target="lZUS2v1G8GHMa_mkW9TZ-106" edge="1">
          <mxGeometry relative="1" as="geometry" />
        </mxCell>
        <mxCell id="lZUS2v1G8GHMa_mkW9TZ-12" value="匹配特征" style="rounded=1;whiteSpace=wrap;html=1;fontSize=16;fillColor=#d5e8d4;strokeColor=#82b366;gradientColor=#97d077;strokeWidth=2;" parent="1" vertex="1">
          <mxGeometry x="1215.5" y="646" width="100" height="30" as="geometry" />
        </mxCell>
        <mxCell id="lZUS2v1G8GHMa_mkW9TZ-13" style="edgeStyle=orthogonalEdgeStyle;rounded=0;orthogonalLoop=1;jettySize=auto;html=1;exitX=0.5;exitY=0;exitDx=0;exitDy=0;entryX=0.5;entryY=1;entryDx=0;entryDy=0;strokeWidth=2;" parent="1" source="lZUS2v1G8GHMa_mkW9TZ-14" target="lZUS2v1G8GHMa_mkW9TZ-82" edge="1">
          <mxGeometry relative="1" as="geometry" />
        </mxCell>
        <mxCell id="lZUS2v1G8GHMa_mkW9TZ-14" value="客户基础特征" style="rounded=1;whiteSpace=wrap;html=1;fontSize=16;fillColor=#fff2cc;strokeColor=#d6b656;gradientColor=#ffd966;strokeWidth=2;" parent="1" vertex="1">
          <mxGeometry x="895" y="646" width="100" height="30" as="geometry" />
        </mxCell>
        <mxCell id="lZUS2v1G8GHMa_mkW9TZ-15" style="edgeStyle=orthogonalEdgeStyle;rounded=0;orthogonalLoop=1;jettySize=auto;html=1;exitX=0.5;exitY=0;exitDx=0;exitDy=0;entryX=0.5;entryY=1;entryDx=0;entryDy=0;strokeWidth=2;" parent="1" source="lZUS2v1G8GHMa_mkW9TZ-16" target="lZUS2v1G8GHMa_mkW9TZ-82" edge="1">
          <mxGeometry relative="1" as="geometry" />
        </mxCell>
        <mxCell id="lZUS2v1G8GHMa_mkW9TZ-16" value="产品基础特征" style="rounded=1;whiteSpace=wrap;html=1;fontSize=16;fillColor=#d5e8d4;strokeColor=#82b366;gradientColor=#97d077;strokeWidth=2;" parent="1" vertex="1">
          <mxGeometry x="1055" y="646" width="100" height="30" as="geometry" />
        </mxCell>
        <mxCell id="syDb2VAmhITfCRq654g6-47" style="edgeStyle=orthogonalEdgeStyle;rounded=0;jumpSize=1;orthogonalLoop=1;jettySize=auto;html=1;exitX=0.5;exitY=0;exitDx=0;exitDy=0;entryX=0.5;entryY=1;entryDx=0;entryDy=0;strokeWidth=1;fontSize=19;fontColor=#333333;" parent="1" source="lZUS2v1G8GHMa_mkW9TZ-20" target="syDb2VAmhITfCRq654g6-36" edge="1">
          <mxGeometry relative="1" as="geometry" />
        </mxCell>
        <mxCell id="lZUS2v1G8GHMa_mkW9TZ-20" value="FFM Layer" style="rounded=1;whiteSpace=wrap;html=1;fontSize=18;fillColor=#f5f5f5;gradientColor=#b3b3b3;strokeColor=#666666;strokeWidth=2;" parent="1" vertex="1">
          <mxGeometry x="140" y="440" width="110" height="50" as="geometry" />
        </mxCell>
        <mxCell id="lZUS2v1G8GHMa_mkW9TZ-38" style="edgeStyle=orthogonalEdgeStyle;rounded=0;orthogonalLoop=1;jettySize=auto;html=1;exitX=0.5;exitY=0;exitDx=0;exitDy=0;entryX=0.5;entryY=1;entryDx=0;entryDy=0;strokeWidth=2;" parent="1" source="lZUS2v1G8GHMa_mkW9TZ-40" target="lZUS2v1G8GHMa_mkW9TZ-56" edge="1">
          <mxGeometry relative="1" as="geometry" />
        </mxCell>
        <mxCell id="lZUS2v1G8GHMa_mkW9TZ-40" value="电子&lt;br&gt;信息" style="rounded=1;whiteSpace=wrap;html=1;fontSize=18;fillColor=#ffcd28;gradientColor=#ffa500;strokeColor=#d79b00;strokeWidth=2;" parent="1" vertex="1">
          <mxGeometry x="199" y="40" width="70" height="230" as="geometry" />
        </mxCell>
        <mxCell id="lZUS2v1G8GHMa_mkW9TZ-42" style="edgeStyle=orthogonalEdgeStyle;rounded=0;orthogonalLoop=1;jettySize=auto;html=1;exitX=0.5;exitY=0;exitDx=0;exitDy=0;entryX=0.5;entryY=1;entryDx=0;entryDy=0;strokeWidth=2;" parent="1" source="lZUS2v1G8GHMa_mkW9TZ-44" target="lZUS2v1G8GHMa_mkW9TZ-59" edge="1">
          <mxGeometry relative="1" as="geometry" />
        </mxCell>
        <mxCell id="lZUS2v1G8GHMa_mkW9TZ-44" value="新材料" style="rounded=1;whiteSpace=wrap;html=1;fontSize=18;fillColor=#f8cecc;gradientColor=#ea6b66;strokeColor=#b85450;strokeWidth=2;" parent="1" vertex="1">
          <mxGeometry x="315" y="40" width="70" height="230" as="geometry" />
        </mxCell>
        <mxCell id="lZUS2v1G8GHMa_mkW9TZ-45" style="edgeStyle=orthogonalEdgeStyle;rounded=0;orthogonalLoop=1;jettySize=auto;html=1;exitX=0.5;exitY=0;exitDx=0;exitDy=0;entryX=0.5;entryY=1;entryDx=0;entryDy=0;strokeWidth=2;" parent="1" source="lZUS2v1G8GHMa_mkW9TZ-46" target="lZUS2v1G8GHMa_mkW9TZ-63" edge="1">
          <mxGeometry relative="1" as="geometry" />
        </mxCell>
        <mxCell id="lZUS2v1G8GHMa_mkW9TZ-46" value="资源与环境" style="rounded=1;whiteSpace=wrap;html=1;fontSize=18;fillColor=#d5e8d4;gradientColor=#97d077;strokeColor=#82b366;strokeWidth=2;" parent="1" vertex="1">
          <mxGeometry x="419" y="40" width="70" height="230" as="geometry" />
        </mxCell>
        <mxCell id="lZUS2v1G8GHMa_mkW9TZ-56" value="" style="ellipse;whiteSpace=wrap;html=1;aspect=fixed;fillColor=#ffcd28;gradientColor=#ffa500;strokeColor=#d79b00;strokeWidth=2;" parent="1" vertex="1">
          <mxGeometry x="219" y="-30" width="30" height="30" as="geometry" />
        </mxCell>
        <mxCell id="lZUS2v1G8GHMa_mkW9TZ-59" value="" style="ellipse;whiteSpace=wrap;html=1;aspect=fixed;fillColor=#f8cecc;gradientColor=#ea6b66;strokeColor=#b85450;strokeWidth=2;" parent="1" vertex="1">
          <mxGeometry x="332" y="-30" width="30" height="30" as="geometry" />
        </mxCell>
        <mxCell id="lZUS2v1G8GHMa_mkW9TZ-63" value="" style="ellipse;whiteSpace=wrap;html=1;aspect=fixed;fillColor=#d5e8d4;gradientColor=#97d077;strokeColor=#82b366;strokeWidth=2;" parent="1" vertex="1">
          <mxGeometry x="438" y="-30" width="30" height="30" as="geometry" />
        </mxCell>
        <mxCell id="lZUS2v1G8GHMa_mkW9TZ-74" value="" style="ellipse;whiteSpace=wrap;html=1;aspect=fixed;fillColor=#ffcd28;gradientColor=#ffa500;strokeColor=#d79b00;strokeWidth=2;" parent="1" vertex="1">
          <mxGeometry x="885" y="-315" width="30" height="30" as="geometry" />
        </mxCell>
        <mxCell id="lZUS2v1G8GHMa_mkW9TZ-75" value="" style="ellipse;whiteSpace=wrap;html=1;aspect=fixed;fillColor=#f8cecc;gradientColor=#ea6b66;strokeColor=#b85450;strokeWidth=2;" parent="1" vertex="1">
          <mxGeometry x="930" y="-315" width="30" height="30" as="geometry" />
        </mxCell>
        <mxCell id="lZUS2v1G8GHMa_mkW9TZ-76" value="" style="ellipse;whiteSpace=wrap;html=1;aspect=fixed;fillColor=#d5e8d4;strokeColor=#82b366;strokeWidth=2;" parent="1" vertex="1">
          <mxGeometry x="975" y="-315" width="30" height="30" as="geometry" />
        </mxCell>
        <mxCell id="lZUS2v1G8GHMa_mkW9TZ-77" value="" style="ellipse;whiteSpace=wrap;html=1;aspect=fixed;fillColor=#f8cecc;strokeColor=#b85450;strokeWidth=2;" parent="1" vertex="1">
          <mxGeometry x="1025" y="-315" width="30" height="30" as="geometry" />
        </mxCell>
        <mxCell id="lZUS2v1G8GHMa_mkW9TZ-81" style="edgeStyle=orthogonalEdgeStyle;rounded=0;orthogonalLoop=1;jettySize=auto;html=1;exitX=0.5;exitY=0;exitDx=0;exitDy=0;entryX=0.5;entryY=1;entryDx=0;entryDy=0;strokeWidth=2;" parent="1" source="lZUS2v1G8GHMa_mkW9TZ-82" target="lZUS2v1G8GHMa_mkW9TZ-86" edge="1">
          <mxGeometry relative="1" as="geometry" />
        </mxCell>
        <mxCell id="lZUS2v1G8GHMa_mkW9TZ-82" value="FM" style="rounded=1;whiteSpace=wrap;html=1;fontSize=18;fillColor=#f5f5f5;gradientColor=#b3b3b3;strokeColor=#666666;strokeWidth=2;" parent="1" vertex="1">
          <mxGeometry x="875" y="551" width="140" height="50" as="geometry" />
        </mxCell>
        <mxCell id="lZUS2v1G8GHMa_mkW9TZ-85" style="edgeStyle=orthogonalEdgeStyle;rounded=0;orthogonalLoop=1;jettySize=auto;html=1;exitX=0.5;exitY=0;exitDx=0;exitDy=0;entryX=0.5;entryY=1;entryDx=0;entryDy=0;fontSize=16;strokeWidth=2;" parent="1" source="lZUS2v1G8GHMa_mkW9TZ-86" target="lZUS2v1G8GHMa_mkW9TZ-88" edge="1">
          <mxGeometry relative="1" as="geometry" />
        </mxCell>
        <mxCell id="lZUS2v1G8GHMa_mkW9TZ-86" value="FC Layer" style="rounded=1;whiteSpace=wrap;html=1;fontSize=18;fillColor=#f5f5f5;gradientColor=#b3b3b3;strokeColor=#666666;strokeWidth=2;" parent="1" vertex="1">
          <mxGeometry x="845" y="466" width="200" height="50" as="geometry" />
        </mxCell>
        <mxCell id="lZUS2v1G8GHMa_mkW9TZ-87" style="edgeStyle=orthogonalEdgeStyle;rounded=0;orthogonalLoop=1;jettySize=auto;html=1;exitX=0.5;exitY=0;exitDx=0;exitDy=0;entryX=0.5;entryY=1;entryDx=0;entryDy=0;fontSize=16;strokeWidth=2;" parent="1" source="lZUS2v1G8GHMa_mkW9TZ-88" target="lZUS2v1G8GHMa_mkW9TZ-92" edge="1">
          <mxGeometry relative="1" as="geometry" />
        </mxCell>
        <mxCell id="lZUS2v1G8GHMa_mkW9TZ-88" value="&lt;h1&gt;+&lt;/h1&gt;" style="ellipse;whiteSpace=wrap;html=1;aspect=fixed;fillColor=#f8cecc;gradientColor=#ea6b66;strokeColor=#b85450;strokeWidth=2;" parent="1" vertex="1">
          <mxGeometry x="925" y="-240" width="40" height="40" as="geometry" />
        </mxCell>
        <mxCell id="lZUS2v1G8GHMa_mkW9TZ-89" style="edgeStyle=orthogonalEdgeStyle;rounded=0;orthogonalLoop=1;jettySize=auto;html=1;exitX=0.5;exitY=0;exitDx=0;exitDy=0;entryX=0;entryY=0.5;entryDx=0;entryDy=0;fontSize=16;strokeWidth=2;" parent="1" source="lZUS2v1G8GHMa_mkW9TZ-92" target="lZUS2v1G8GHMa_mkW9TZ-116" edge="1">
          <mxGeometry relative="1" as="geometry">
            <Array as="points">
              <mxPoint x="945" y="-390" />
            </Array>
          </mxGeometry>
        </mxCell>
        <mxCell id="lZUS2v1G8GHMa_mkW9TZ-90" style="edgeStyle=orthogonalEdgeStyle;rounded=0;orthogonalLoop=1;jettySize=auto;html=1;exitX=0.5;exitY=0;exitDx=0;exitDy=0;fontSize=16;strokeWidth=2;" parent="1" source="lZUS2v1G8GHMa_mkW9TZ-92" edge="1">
          <mxGeometry relative="1" as="geometry">
            <mxPoint x="945.5294117647063" y="-420" as="targetPoint" />
          </mxGeometry>
        </mxCell>
        <mxCell id="lZUS2v1G8GHMa_mkW9TZ-91" style="edgeStyle=orthogonalEdgeStyle;rounded=0;orthogonalLoop=1;jettySize=auto;html=1;exitX=0.5;exitY=0;exitDx=0;exitDy=0;entryX=0.5;entryY=1;entryDx=0;entryDy=0;fontSize=18;strokeWidth=2;" parent="1" source="lZUS2v1G8GHMa_mkW9TZ-92" target="lZUS2v1G8GHMa_mkW9TZ-117" edge="1">
          <mxGeometry relative="1" as="geometry" />
        </mxCell>
        <mxCell id="lZUS2v1G8GHMa_mkW9TZ-92" value="" style="rounded=1;whiteSpace=wrap;html=1;shadow=0;gradientColor=none;fillColor=none;strokeWidth=2;" parent="1" vertex="1">
          <mxGeometry x="800" y="-327.5" width="290" height="55" as="geometry" />
        </mxCell>
        <mxCell id="lZUS2v1G8GHMa_mkW9TZ-149" style="edgeStyle=orthogonalEdgeStyle;rounded=0;orthogonalLoop=1;jettySize=auto;html=1;exitX=0.5;exitY=0;exitDx=0;exitDy=0;entryX=0.5;entryY=1;entryDx=0;entryDy=0;" parent="1" edge="1">
          <mxGeometry relative="1" as="geometry">
            <mxPoint x="234" y="-36" as="sourcePoint" />
            <mxPoint x="379" y="-91" as="targetPoint" />
            <Array as="points">
              <mxPoint x="234" y="-63" />
              <mxPoint x="379" y="-63" />
            </Array>
          </mxGeometry>
        </mxCell>
        <mxCell id="lZUS2v1G8GHMa_mkW9TZ-94" value="" style="rounded=1;whiteSpace=wrap;html=1;shadow=0;gradientColor=none;fillColor=none;strokeWidth=2;" parent="1" vertex="1">
          <mxGeometry x="204" y="-35" width="60" height="55" as="geometry" />
        </mxCell>
        <mxCell id="syDb2VAmhITfCRq654g6-43" style="edgeStyle=orthogonalEdgeStyle;rounded=0;jumpSize=1;orthogonalLoop=1;jettySize=auto;html=1;exitX=0.5;exitY=0;exitDx=0;exitDy=0;entryX=0.5;entryY=1;entryDx=0;entryDy=0;strokeWidth=1;fontSize=19;fontColor=#333333;" parent="1" source="lZUS2v1G8GHMa_mkW9TZ-96" target="lZUS2v1G8GHMa_mkW9TZ-104" edge="1">
          <mxGeometry relative="1" as="geometry" />
        </mxCell>
        <mxCell id="lZUS2v1G8GHMa_mkW9TZ-96" value="" style="rounded=1;whiteSpace=wrap;html=1;shadow=0;gradientColor=none;fillColor=none;strokeWidth=2;" parent="1" vertex="1">
          <mxGeometry x="315" y="-35" width="61" height="55" as="geometry" />
        </mxCell>
        <mxCell id="lZUS2v1G8GHMa_mkW9TZ-147" style="edgeStyle=orthogonalEdgeStyle;rounded=0;orthogonalLoop=1;jettySize=auto;html=1;exitX=0.5;exitY=0;exitDx=0;exitDy=0;entryX=0.5;entryY=1;entryDx=0;entryDy=0;" parent="1" source="lZUS2v1G8GHMa_mkW9TZ-100" target="lZUS2v1G8GHMa_mkW9TZ-104" edge="1">
          <mxGeometry relative="1" as="geometry" />
        </mxCell>
        <mxCell id="lZUS2v1G8GHMa_mkW9TZ-100" value="" style="rounded=1;whiteSpace=wrap;html=1;shadow=0;gradientColor=none;fillColor=none;strokeWidth=2;" parent="1" vertex="1">
          <mxGeometry x="424" y="-35" width="60" height="50" as="geometry" />
        </mxCell>
        <mxCell id="lZUS2v1G8GHMa_mkW9TZ-103" style="edgeStyle=orthogonalEdgeStyle;rounded=0;orthogonalLoop=1;jettySize=auto;html=1;exitX=0.5;exitY=0;exitDx=0;exitDy=0;strokeWidth=2;" parent="1" source="lZUS2v1G8GHMa_mkW9TZ-104" target="lZUS2v1G8GHMa_mkW9TZ-88" edge="1">
          <mxGeometry relative="1" as="geometry" />
        </mxCell>
        <mxCell id="lZUS2v1G8GHMa_mkW9TZ-104" value="Concat Layer" style="rounded=1;whiteSpace=wrap;html=1;fontSize=18;fillColor=#f5f5f5;gradientColor=#b3b3b3;strokeColor=#666666;strokeWidth=2;" parent="1" vertex="1">
          <mxGeometry x="174" y="-140" width="410" height="50" as="geometry" />
        </mxCell>
        <mxCell id="lZUS2v1G8GHMa_mkW9TZ-105" style="edgeStyle=orthogonalEdgeStyle;rounded=0;orthogonalLoop=1;jettySize=auto;html=1;exitX=0.5;exitY=0;exitDx=0;exitDy=0;entryX=1;entryY=0.5;entryDx=0;entryDy=0;strokeWidth=2;" parent="1" source="lZUS2v1G8GHMa_mkW9TZ-106" target="lZUS2v1G8GHMa_mkW9TZ-88" edge="1">
          <mxGeometry relative="1" as="geometry" />
        </mxCell>
        <mxCell id="lZUS2v1G8GHMa_mkW9TZ-106" value="LR" style="rounded=1;whiteSpace=wrap;html=1;fontSize=18;fillColor=#f5f5f5;gradientColor=#b3b3b3;strokeColor=#666666;strokeWidth=2;" parent="1" vertex="1">
          <mxGeometry x="1195.5" y="551" width="140" height="50" as="geometry" />
        </mxCell>
        <mxCell id="9xGQbu5b4NpAhHMv7e0Q-2" style="edgeStyle=orthogonalEdgeStyle;rounded=0;orthogonalLoop=1;jettySize=auto;html=1;entryX=0.5;entryY=1;entryDx=0;entryDy=0;" edge="1" parent="1" source="lZUS2v1G8GHMa_mkW9TZ-115" target="lZUS2v1G8GHMa_mkW9TZ-116">
          <mxGeometry relative="1" as="geometry" />
        </mxCell>
        <mxCell id="lZUS2v1G8GHMa_mkW9TZ-115" value="Label" style="rounded=1;whiteSpace=wrap;html=1;fontSize=16;fillColor=#f8cecc;strokeColor=#b85450;gradientColor=#ea6b66;strokeWidth=2;" parent="1" vertex="1">
          <mxGeometry x="1354" y="646" width="100" height="30" as="geometry" />
        </mxCell>
        <mxCell id="lZUS2v1G8GHMa_mkW9TZ-116" value="&lt;font style=&quot;font-size: 18px&quot;&gt;Loss&lt;/font&gt;" style="ellipse;whiteSpace=wrap;html=1;shadow=0;fontSize=18;strokeWidth=2;fillColor=#f8cecc;gradientColor=#ea6b66;fontStyle=1;strokeColor=#b85450;fontColor=#FFFFFF;" parent="1" vertex="1">
          <mxGeometry x="1343" y="-430" width="120" height="80" as="geometry" />
        </mxCell>
        <mxCell id="lZUS2v1G8GHMa_mkW9TZ-117" value="&lt;font style=&quot;font-size: 18px&quot;&gt;Pred&lt;/font&gt;" style="ellipse;whiteSpace=wrap;html=1;shadow=0;fontSize=18;strokeWidth=2;fillColor=#d5e8d4;gradientColor=#97d077;fontStyle=1;strokeColor=#82b366;fontColor=#FFFFFF;" parent="1" vertex="1">
          <mxGeometry x="884" y="-501" width="120" height="80" as="geometry" />
        </mxCell>
        <mxCell id="lZUS2v1G8GHMa_mkW9TZ-125" style="edgeStyle=orthogonalEdgeStyle;rounded=0;orthogonalLoop=1;jettySize=auto;html=1;exitX=0.5;exitY=0;exitDx=0;exitDy=0;entryX=0.5;entryY=1;entryDx=0;entryDy=0;strokeWidth=2;" parent="1" source="lZUS2v1G8GHMa_mkW9TZ-126" target="lZUS2v1G8GHMa_mkW9TZ-127" edge="1">
          <mxGeometry relative="1" as="geometry" />
        </mxCell>
        <mxCell id="lZUS2v1G8GHMa_mkW9TZ-126" value="生物与新医药" style="rounded=1;whiteSpace=wrap;html=1;fontSize=18;fillColor=#f8cecc;strokeColor=#b85450;strokeWidth=2;" parent="1" vertex="1">
          <mxGeometry x="514" y="39" width="70" height="230" as="geometry" />
        </mxCell>
        <mxCell id="lZUS2v1G8GHMa_mkW9TZ-127" value="" style="ellipse;whiteSpace=wrap;html=1;aspect=fixed;fillColor=#f8cecc;strokeColor=#b85450;strokeWidth=2;" parent="1" vertex="1">
          <mxGeometry x="533" y="-31" width="30" height="30" as="geometry" />
        </mxCell>
        <mxCell id="lZUS2v1G8GHMa_mkW9TZ-146" style="edgeStyle=orthogonalEdgeStyle;rounded=0;orthogonalLoop=1;jettySize=auto;html=1;exitX=0.5;exitY=0;exitDx=0;exitDy=0;entryX=0.5;entryY=1;entryDx=0;entryDy=0;" parent="1" source="lZUS2v1G8GHMa_mkW9TZ-128" target="lZUS2v1G8GHMa_mkW9TZ-104" edge="1">
          <mxGeometry relative="1" as="geometry">
            <Array as="points">
              <mxPoint x="549" y="-63" />
              <mxPoint x="379" y="-63" />
            </Array>
          </mxGeometry>
        </mxCell>
        <mxCell id="lZUS2v1G8GHMa_mkW9TZ-128" value="" style="rounded=1;whiteSpace=wrap;html=1;shadow=0;gradientColor=none;fillColor=none;strokeWidth=2;" parent="1" vertex="1">
          <mxGeometry x="519" y="-36" width="60" height="50" as="geometry" />
        </mxCell>
        <mxCell id="syDb2VAmhITfCRq654g6-44" style="edgeStyle=orthogonalEdgeStyle;rounded=0;jumpSize=1;orthogonalLoop=1;jettySize=auto;html=1;exitX=0.5;exitY=0;exitDx=0;exitDy=0;entryX=0.5;entryY=1;entryDx=0;entryDy=0;strokeWidth=1;fontSize=19;fontColor=#333333;" parent="1" source="syDb2VAmhITfCRq654g6-21" target="lZUS2v1G8GHMa_mkW9TZ-20" edge="1">
          <mxGeometry relative="1" as="geometry" />
        </mxCell>
        <mxCell id="syDb2VAmhITfCRq654g6-45" style="edgeStyle=orthogonalEdgeStyle;rounded=0;jumpSize=1;orthogonalLoop=1;jettySize=auto;html=1;exitX=0.5;exitY=0;exitDx=0;exitDy=0;entryX=0.5;entryY=1;entryDx=0;entryDy=0;strokeWidth=1;fontSize=19;fontColor=#333333;" parent="1" source="syDb2VAmhITfCRq654g6-21" target="syDb2VAmhITfCRq654g6-23" edge="1">
          <mxGeometry relative="1" as="geometry" />
        </mxCell>
        <mxCell id="syDb2VAmhITfCRq654g6-46" style="edgeStyle=orthogonalEdgeStyle;rounded=0;jumpSize=1;orthogonalLoop=1;jettySize=auto;html=1;exitX=0.5;exitY=0;exitDx=0;exitDy=0;entryX=0.5;entryY=1;entryDx=0;entryDy=0;strokeWidth=1;fontSize=19;fontColor=#333333;" parent="1" source="syDb2VAmhITfCRq654g6-21" target="syDb2VAmhITfCRq654g6-24" edge="1">
          <mxGeometry relative="1" as="geometry" />
        </mxCell>
        <mxCell id="syDb2VAmhITfCRq654g6-21" value="特征层" style="rounded=1;whiteSpace=wrap;html=1;fontSize=18;fillColor=#f5f5f5;gradientColor=#b3b3b3;strokeColor=#666666;strokeWidth=2;" parent="1" vertex="1">
          <mxGeometry x="140" y="561" width="420" height="50" as="geometry" />
        </mxCell>
        <mxCell id="syDb2VAmhITfCRq654g6-48" style="edgeStyle=orthogonalEdgeStyle;rounded=0;jumpSize=1;orthogonalLoop=1;jettySize=auto;html=1;exitX=0.5;exitY=0;exitDx=0;exitDy=0;entryX=0.5;entryY=1;entryDx=0;entryDy=0;strokeWidth=1;fontSize=19;fontColor=#333333;" parent="1" source="syDb2VAmhITfCRq654g6-23" target="syDb2VAmhITfCRq654g6-36" edge="1">
          <mxGeometry relative="1" as="geometry" />
        </mxCell>
        <mxCell id="syDb2VAmhITfCRq654g6-23" value="FFM Layer" style="rounded=1;whiteSpace=wrap;html=1;fontSize=18;fillColor=#f5f5f5;gradientColor=#b3b3b3;strokeColor=#666666;strokeWidth=2;" parent="1" vertex="1">
          <mxGeometry x="294" y="440" width="110" height="50" as="geometry" />
        </mxCell>
        <mxCell id="syDb2VAmhITfCRq654g6-49" style="edgeStyle=orthogonalEdgeStyle;rounded=0;jumpSize=1;orthogonalLoop=1;jettySize=auto;html=1;exitX=0.5;exitY=0;exitDx=0;exitDy=0;entryX=0.5;entryY=1;entryDx=0;entryDy=0;strokeWidth=1;fontSize=19;fontColor=#333333;" parent="1" source="syDb2VAmhITfCRq654g6-24" target="syDb2VAmhITfCRq654g6-36" edge="1">
          <mxGeometry relative="1" as="geometry" />
        </mxCell>
        <mxCell id="syDb2VAmhITfCRq654g6-24" value="FFM Layer" style="rounded=1;whiteSpace=wrap;html=1;fontSize=18;fillColor=#f5f5f5;gradientColor=#b3b3b3;strokeColor=#666666;strokeWidth=2;" parent="1" vertex="1">
          <mxGeometry x="450" y="440" width="110" height="50" as="geometry" />
        </mxCell>
        <mxCell id="syDb2VAmhITfCRq654g6-25" value="16维" style="text;html=1;align=center;verticalAlign=middle;resizable=0;points=[];autosize=1;strokeColor=none;fillColor=none;fontSize=19;fontColor=#333333;" parent="1" vertex="1">
          <mxGeometry x="380" y="489" width="60" height="40" as="geometry" />
        </mxCell>
        <mxCell id="syDb2VAmhITfCRq654g6-26" value="32维" style="text;html=1;align=center;verticalAlign=middle;resizable=0;points=[];autosize=1;strokeColor=none;fillColor=none;fontSize=19;fontColor=#333333;" parent="1" vertex="1">
          <mxGeometry x="560" y="489" width="60" height="40" as="geometry" />
        </mxCell>
        <mxCell id="syDb2VAmhITfCRq654g6-27" value="8维" style="text;html=1;align=center;verticalAlign=middle;resizable=0;points=[];autosize=1;strokeColor=none;fillColor=none;fontSize=19;fontColor=#333333;" parent="1" vertex="1">
          <mxGeometry x="205" y="489" width="50" height="40" as="geometry" />
        </mxCell>
        <mxCell id="syDb2VAmhITfCRq654g6-34" style="edgeStyle=orthogonalEdgeStyle;rounded=0;jumpSize=1;orthogonalLoop=1;jettySize=auto;html=1;exitX=0.5;exitY=0;exitDx=0;exitDy=0;entryX=0.5;entryY=1;entryDx=0;entryDy=0;strokeWidth=1;fontSize=19;fontColor=#333333;" parent="1" source="syDb2VAmhITfCRq654g6-28" target="syDb2VAmhITfCRq654g6-30" edge="1">
          <mxGeometry relative="1" as="geometry" />
        </mxCell>
        <mxCell id="syDb2VAmhITfCRq654g6-28" value="航空&lt;br&gt;航天" style="rounded=1;whiteSpace=wrap;html=1;fontSize=18;fillColor=#fff2cc;strokeColor=#d6b656;strokeWidth=2;" parent="1" vertex="1">
          <mxGeometry x="104" y="39" width="70" height="230" as="geometry" />
        </mxCell>
        <mxCell id="syDb2VAmhITfCRq654g6-30" value="" style="ellipse;whiteSpace=wrap;html=1;aspect=fixed;fillColor=#fff2cc;strokeColor=#d6b656;strokeWidth=2;" parent="1" vertex="1">
          <mxGeometry x="124" y="-28" width="30" height="30" as="geometry" />
        </mxCell>
        <mxCell id="syDb2VAmhITfCRq654g6-35" style="edgeStyle=orthogonalEdgeStyle;rounded=0;jumpSize=1;orthogonalLoop=1;jettySize=auto;html=1;exitX=0.5;exitY=0;exitDx=0;exitDy=0;entryX=0.5;entryY=1;entryDx=0;entryDy=0;strokeWidth=1;fontSize=19;fontColor=#333333;" parent="1" source="syDb2VAmhITfCRq654g6-31" target="lZUS2v1G8GHMa_mkW9TZ-104" edge="1">
          <mxGeometry relative="1" as="geometry" />
        </mxCell>
        <mxCell id="syDb2VAmhITfCRq654g6-31" value="" style="rounded=1;whiteSpace=wrap;html=1;shadow=0;gradientColor=none;fillColor=none;strokeWidth=2;" parent="1" vertex="1">
          <mxGeometry x="109" y="-35.5" width="60" height="55" as="geometry" />
        </mxCell>
        <mxCell id="syDb2VAmhITfCRq654g6-38" style="edgeStyle=orthogonalEdgeStyle;rounded=0;jumpSize=1;orthogonalLoop=1;jettySize=auto;html=1;exitX=0.5;exitY=0;exitDx=0;exitDy=0;entryX=0.5;entryY=1;entryDx=0;entryDy=0;strokeWidth=1;fontSize=19;fontColor=#333333;" parent="1" source="syDb2VAmhITfCRq654g6-36" target="syDb2VAmhITfCRq654g6-28" edge="1">
          <mxGeometry relative="1" as="geometry" />
        </mxCell>
        <mxCell id="syDb2VAmhITfCRq654g6-39" style="edgeStyle=orthogonalEdgeStyle;rounded=0;jumpSize=1;orthogonalLoop=1;jettySize=auto;html=1;exitX=0.5;exitY=0;exitDx=0;exitDy=0;entryX=0.5;entryY=1;entryDx=0;entryDy=0;strokeWidth=1;fontSize=19;fontColor=#333333;" parent="1" source="syDb2VAmhITfCRq654g6-36" target="lZUS2v1G8GHMa_mkW9TZ-40" edge="1">
          <mxGeometry relative="1" as="geometry" />
        </mxCell>
        <mxCell id="syDb2VAmhITfCRq654g6-40" style="edgeStyle=orthogonalEdgeStyle;rounded=0;jumpSize=1;orthogonalLoop=1;jettySize=auto;html=1;exitX=0.5;exitY=0;exitDx=0;exitDy=0;entryX=0.5;entryY=1;entryDx=0;entryDy=0;strokeWidth=1;fontSize=19;fontColor=#333333;" parent="1" source="syDb2VAmhITfCRq654g6-36" target="lZUS2v1G8GHMa_mkW9TZ-44" edge="1">
          <mxGeometry relative="1" as="geometry" />
        </mxCell>
        <mxCell id="syDb2VAmhITfCRq654g6-41" style="edgeStyle=orthogonalEdgeStyle;rounded=0;jumpSize=1;orthogonalLoop=1;jettySize=auto;html=1;exitX=0.5;exitY=0;exitDx=0;exitDy=0;entryX=0.5;entryY=1;entryDx=0;entryDy=0;strokeWidth=1;fontSize=19;fontColor=#333333;" parent="1" source="syDb2VAmhITfCRq654g6-36" target="lZUS2v1G8GHMa_mkW9TZ-46" edge="1">
          <mxGeometry relative="1" as="geometry" />
        </mxCell>
        <mxCell id="syDb2VAmhITfCRq654g6-42" style="edgeStyle=orthogonalEdgeStyle;rounded=0;jumpSize=1;orthogonalLoop=1;jettySize=auto;html=1;exitX=0.5;exitY=0;exitDx=0;exitDy=0;entryX=0.5;entryY=1;entryDx=0;entryDy=0;strokeWidth=1;fontSize=19;fontColor=#333333;" parent="1" source="syDb2VAmhITfCRq654g6-36" target="lZUS2v1G8GHMa_mkW9TZ-126" edge="1">
          <mxGeometry relative="1" as="geometry" />
        </mxCell>
        <mxCell id="syDb2VAmhITfCRq654g6-36" value="Concat Layer" style="rounded=1;whiteSpace=wrap;html=1;fontSize=18;fillColor=#f5f5f5;gradientColor=#b3b3b3;strokeColor=#666666;strokeWidth=2;" parent="1" vertex="1">
          <mxGeometry x="140" y="340" width="420" height="50" as="geometry" />
        </mxCell>
        <mxCell id="9xGQbu5b4NpAhHMv7e0Q-1" value="" style="ellipse;whiteSpace=wrap;html=1;aspect=fixed;fillColor=#fff2cc;strokeColor=#d6b656;strokeWidth=2;" vertex="1" parent="1">
          <mxGeometry x="833" y="-315" width="30" height="30" as="geometry" />
        </mxCell>
        <mxCell id="9xGQbu5b4NpAhHMv7e0Q-4" value="&lt;font color=&quot;#a3a3a3&quot; style=&quot;font-size: 15px;&quot;&gt;行业拆塔&lt;/font&gt;" style="text;html=1;align=center;verticalAlign=middle;resizable=0;points=[];autosize=1;strokeColor=none;fillColor=none;" vertex="1" parent="1">
          <mxGeometry x="-62" y="119.5" width="78" height="30" as="geometry" />
        </mxCell>
        <mxCell id="9xGQbu5b4NpAhHMv7e0Q-9" value="&lt;font color=&quot;#a3a3a3&quot;&gt;&lt;span style=&quot;font-size: 15px;&quot;&gt;多个交叉网络&lt;/span&gt;&lt;/font&gt;" style="text;html=1;align=center;verticalAlign=middle;resizable=0;points=[];autosize=1;strokeColor=none;fillColor=none;" vertex="1" parent="1">
          <mxGeometry x="-77" y="454.5" width="108" height="30" as="geometry" />
        </mxCell>
        <mxCell id="9xGQbu5b4NpAhHMv7e0Q-12" value="&lt;font color=&quot;#a3a3a3&quot;&gt;&lt;span style=&quot;font-size: 15px;&quot;&gt;输入特征&lt;/span&gt;&lt;/font&gt;" style="text;html=1;align=center;verticalAlign=middle;resizable=0;points=[];autosize=1;strokeColor=none;fillColor=none;" vertex="1" parent="1">
          <mxGeometry x="-62" y="614" width="78" height="30" as="geometry" />
        </mxCell>
        <mxCell id="9xGQbu5b4NpAhHMv7e0Q-14" value="&lt;font color=&quot;#a3a3a3&quot;&gt;&lt;span style=&quot;font-size: 15px;&quot;&gt;wide侧&lt;/span&gt;&lt;/font&gt;" style="text;html=1;align=center;verticalAlign=middle;resizable=0;points=[];autosize=1;strokeColor=none;fillColor=none;" vertex="1" parent="1">
          <mxGeometry x="1523" y="521" width="64" height="30" as="geometry" />
        </mxCell>
      </root>
    </mxGraphModel>
  </diagram>
</mxfile>
